<?xml version="1.0" encoding="utf-8"?>
<!-- Generator: Adobe Illustrator 27.5.0, SVG Export Plug-In . SVG Version: 6.00 Build 0)  -->
<svg version="1.1" id="Capa_1" xmlns="http://www.w3.org/2000/svg" xmlns:xlink="http://www.w3.org/1999/xlink" x="0px" y="0px"
	 viewBox="0 0 2122 2122" style="enable-background:new 0 0 2122 2122;" xml:space="preserve">
<g>
	<path style="fill:#F08899;" d="M1758.167,846.961l1.094-0.281l-388.637-93.276c76.646-8.203,153.148-33.529,207.804-88.656
		c29.386-29.639,51.448-69.423,54.162-111.654c2.566-39.927-10.06-81.197-40.654-108.285
		c-16.488-14.597-34.807-25.716-56.304-31.402c-28.498-7.539-58.654-6.001-87.043,1.216c-49.816,12.666-90.246,43.884-126.566,78.89
		c-7.599,7.324-15.1,14.751-22.752,22.019c-3.549,3.373-7.13,6.713-10.767,9.991c-1.68,1.512-3.369,3.011-5.073,4.494
		c-1.135,0.989-2.289,1.957-3.426,2.944c-4.329,3.758,2.19-1.599,3.638-2.954c-2.664,3.082-7.225,5.645-10.482,8.044
		c-4.199,3.095-8.48,6.081-12.837,8.952c-3.774,2.487-7.604,4.888-11.485,7.206c-1.045,0.624-2.101,1.23-3.155,1.84l-0.122,0.065
		c-8.313,4.378-16.821,8.385-25.486,12.016c-3.676,1.541-7.396,2.959-11.12,4.372c-1.721,0.568-3.439,1.143-5.171,1.684
		c-5.767,1.799-11.598,3.385-17.454,4.874c10.381-14.485,20.107-29.424,28.64-45.146c25.406-46.811,43.79-102.037,35.155-155.939
		c-3.96-24.72-17.745-48.312-41.876-57.887c-32.751-12.996-73.003,0.625-97.738,23.88c-22.722,21.364-37.757,48.136-48.235,76.886
		c-1.191-4.292-2.359-8.59-3.679-12.841c-7.132-22.958-16.626-45.738-31.24-65.011c-7.113-9.381-16.262-16.875-27.833-19.974
		c-18.443-4.938-39.076-0.723-56.564,5.744c-26.572,9.826-45.471,30.397-54.864,56.869c-16.694,47.057-2.899,97.552,19.358,140.152
		c8.101,15.505,17.125,30.669,26.878,45.385c-5.725-1.917-11.402-3.972-17.024-6.185c-25.016-10.922-48.537-24.852-69.921-41.841
		c-26.846-22.873-50.537-49.138-78.062-71.298c-29.508-23.757-65.292-40.205-103.392-43.062
		c-80.1-6.006-167.066,49.443-175.616,133.471c-7.22,70.966,36.084,133.204,95.131,168.352
		c30.597,18.213,65.455,29.96,100.345,36.553c8.325,1.573,16.656,2.897,24.992,4.082c-167.685,46.872-343.907,95.796-347.602,95.427
		l-23.779,228.032l59.622,7.398l17.845,578.1l643.226,145.807v0.255l0.562-0.127l0.561-0.127l643.227-145.807l17.845-578.1
		l59.622-7.398L1758.167,846.961z M897.384,677.016c-0.937,0.357-1.869,0.728-2.808,1.081
		C891.343,679.312,886.454,680.684,897.384,677.016z M898.126,676.768c1.117-0.374,2.328-0.777,3.76-1.251
		c-0.983,0.325-1.96,0.672-2.941,1.002L898.126,676.768z M1312.896,592.841c28.241-16.734,53.125-38.358,76.636-61.125
		c10.824-10.481,21.5-21.129,32.754-31.153c2.81-2.502,5.726-4.884,8.54-7.38c-11.493,10.202-1.592,1.416,1.413-0.843
		c5.406-4.066,11.017-7.855,16.802-11.36c0.973-0.511,1.944-1.027,2.932-1.503c2.676-1.291,5.402-2.449,8.139-3.592
		c0.837-0.251,1.666-0.523,2.51-0.753c0.898-0.245,1.804-0.445,2.707-0.661c0.697-0.085,1.393-0.177,2.093-0.244
		c0.341-0.032,0.9-0.068,1.537-0.105l0.223,0.01c1.419,0.081,2.825,0.24,4.233,0.383c0.964,0.224,1.929,0.437,2.887,0.701
		c1.742,0.481,3.463,1.022,5.17,1.608c6.085,2.898,11.832,6.362,17.255,10.363c8.819,7.945,16.245,17.136,22.161,27.425
		c5.718,12.518,8.962,25.848,10.051,39.558c-0.007,14.815-2.406,29.378-6.959,43.456c-4.458,10.905-10.148,21.146-16.922,30.771
		c-5.748,7.057-11.887,13.773-18.638,19.895c-0.363,0.328-1.199,1.052-2.09,1.819c-1.057,0.839-2.114,1.678-2.559,2.013
		c-4.455,3.356-9.045,6.53-13.758,9.513c-1.579,0.999-3.187,1.951-4.789,2.91c1.169-0.613,2.546-1.329,4.207-2.185
		c-1.162,0.599-2.303,1.246-3.461,1.853l-1.101,0.549c-0.53,0.316-1.05,0.645-1.58,0.96c-2.553,1.517-6.379,3.222,0.576-0.46
		c-4.952,2.531-9.982,4.913-15.096,7.096c-2.672,1.14-5.365,2.23-8.074,3.279c-5.239,1.694-10.486,3.332-15.805,4.771
		c-5.779,1.564-11.605,2.958-17.459,4.212c-1.339,0.286-2.683,0.55-4.029,0.81c-1.074,0.179-2.147,0.358-3.223,0.527
		c-12.672,1.988-25.435,3.424-38.232,4.316c-5.864,0.409-12.095,0.055-17.938,0.792c-3.183-0.012-6.365-0.047-9.546-0.137
		c-13.444-0.379-26.871-1.437-40.197-3.258c-3.132-0.427-6.247-1.017-9.381-1.41c14.898,1.867,1.245,0.123-2.495-0.651
		c-6.675-1.382-13.309-2.969-19.883-4.771c-10.719-2.938-21.242-6.493-31.585-10.542c-16.861-7.37-32.984-16.216-48.105-26.615
		C1228.566,634.053,1272.637,616.697,1312.896,592.841z M1155.393,352.36 M1099.41,501.838
		c5.568-44.706,16.015-94.292,41.216-131.117c3.031-4.43,6.292-8.705,9.777-12.789c1.699-1.993,3.457-3.942,5.273-5.83l0.675-0.62
		c1.263-1.157,2.527-2.309,3.838-3.414c0.546-0.46,1.105-0.909,1.676-1.346c0.842,0.332,1.688,0.648,2.513,1.033
		c1.116,0.521,2.218,1.07,3.281,1.692l0.302,0.172l0.643,0.488c4.288,3.142,8.155,6.785,11.426,10.984
		c6.692,8.589,10.005,19.74,11.917,30.324c8.487,46.95-7.213,97.254-28.392,138.756c-6.985,13.688-14.968,26.804-23.603,39.514
		c-11.937-9.51-26.469-16.144-43.395-19.162C1096.405,534.275,1097.399,517.989,1099.41,501.838z M938.852,407.42
		c1.158-19.431,7.381-41.612,20.095-56.752l0.576-0.605c0.461,0.314,0.938,0.624,1.361,0.932c4.188,3.047,7.788,6.851,10.989,10.903
		c13.237,16.756,21.431,38.329,27.896,58.457c7.172,22.325,12.426,45.318,16.114,68.467c3.676,23.087,5.587,46.405,5.916,69.74
		c-7.118,2.747-13.975,6.042-20.479,9.817c-8.098-11.252-15.754-22.834-22.891-34.743
		C955.593,495.533,936.141,452.878,938.852,407.42z M691.358,670.332c-17.763-7.746-34.48-17.437-49.696-29.462
		c-14.273-12.627-26.55-27.207-36.02-43.777c-7.91-16.364-12.719-33.898-14.049-52.028c0.049-12.513,1.815-24.817,5.551-36.747
		c2.981-7.03,6.645-13.68,10.986-19.95c2.117-2.488,4.296-4.92,6.636-7.212c0.849-0.831,1.739-1.613,2.624-2.403l0.781-0.581
		c1.395-1,2.84-1.914,4.276-2.845c0.738-0.34,1.479-0.677,2.222-1.002l0.359-0.094l0.778-0.061c1.671,0.06,3.345,0.112,5.008,0.272
		l1.212,0.141c1.945,0.445,3.913,0.83,5.828,1.352c3.371,0.918,6.676,2.031,9.954,3.221c14.797,6.699,28.384,15.484,41.096,25.575
		c32.534,27.747,60.568,60.231,96.008,84.663c35.003,24.129,75.626,41.427,116.885,51.427c14.426,3.496,29.113,6.181,43.885,8.16
		c-0.097,1.143-0.18,2.291-0.236,3.448c-2.761,1.879-5.491,3.806-8.32,5.582c-2.044,1.282-4.104,2.535-6.18,3.763l-0.22,0.129
		c-9.263,4.854-18.703,9.325-28.415,13.216c-1.541,0.617-3.095,1.197-4.646,1.788c-5.15,1.702-10.335,3.303-15.566,4.737
		c-5.43,1.489-10.901,2.826-16.402,4.028c-0.669,0.146-2.352,0.482-4.002,0.81c-1.813,0.307-3.648,0.617-4.417,0.733
		c-12.515,1.884-25.131,3.08-37.773,3.667c-2.286,0.106-4.621,0.102-6.934,0.195l-0.354,0c-6.736-0.031-13.469-0.229-20.196-0.584
		c-12.567-0.663-25.11-1.88-37.576-3.605c-1.563-0.216-3.121-0.46-4.681-0.696c-1.74-0.562-4.377-0.716-5.981-1.028
		c-6.247-1.217-12.463-2.593-18.636-4.146C713.672,678.131,702.403,674.552,691.358,670.332z"/>
	<path style="fill:#F4A7BA;" d="M579.024,868.211L984.01,747.606c-9.354-8.109-17.224-17.921-23.374-29.028
		c-46.197,21.697-96.905,34.116-147.797,37.096c-34.323,2.01-68.254,0.382-102.055-4.421
		c-167.685,46.872-343.907,95.796-347.603,95.427L579.024,868.211L579.024,868.211z"/>
	<polygon style="fill:#EC7189;" points="817.27,1134.008 713.97,1121.19 589.052,1105.689 557.904,1101.824 399.027,1082.11 
		416.872,1660.21 1060.098,1806.018 1060.098,1164.279 1060.098,1164.139 	"/>
	<path style="fill:#EC6672;" d="M1758.167,846.961l1.094-0.281l-388.637-93.276c-21.84,2.338-43.692,3.292-65.053,3.141
		c-52.678-0.372-105.374-10.939-153.066-32.398c-6.406,7.952-13.835,15.154-22.061,21.415l411.851,122.649l0,0l21.121,233.613v0
		l-31.149,3.865l-193.058,23.956l-23.422-238.839l-227.713-123.665c-11.501,3.435-23.508,5.292-35.638,5.292
		c-8.425,0-16.478-0.915-24.128-2.611L805.532,890.807l255.128,25.451l-0.562,0.056v158.398v89.428v0.14v641.738v0.255l0.562-0.127
		l0.561-0.127l643.227-145.807l17.845-578.1l59.622-7.398L1758.167,846.961z"/>
	<path style="fill:#FBBF5B;" d="M1591.935,444.809c-16.488-14.597-34.807-25.716-56.304-31.402
		c-28.498-7.539-58.654-6.001-87.043,1.216c-49.816,12.666-90.246,43.884-126.566,78.89c-7.599,7.324-15.1,14.751-22.752,22.019
		c-3.549,3.373-7.13,6.713-10.767,9.991c-1.68,1.512-3.369,3.011-5.073,4.494c-1.135,0.989-2.289,1.957-3.426,2.944
		c-4.329,3.758,2.19-1.599,3.638-2.954c-2.664,3.082-7.225,5.645-10.482,8.044c-4.199,3.095-8.48,6.081-12.837,8.952
		c-3.774,2.487-7.604,4.888-11.485,7.206c-1.045,0.624-2.101,1.23-3.155,1.84l-0.122,0.065c-8.313,4.378-16.821,8.385-25.486,12.016
		c-3.676,1.541-7.396,2.959-11.12,4.372c-1.721,0.568-3.439,1.143-5.171,1.684c-5.767,1.799-11.598,3.385-17.454,4.874
		c10.381-14.485,20.107-29.424,28.64-45.146c25.406-46.811,43.79-102.037,35.155-155.939c-3.96-24.72-17.745-48.312-41.876-57.887
		c-32.751-12.996-73.003,0.625-97.738,23.88c-22.722,21.364-37.757,48.136-48.235,76.886c-1.191-4.292-2.359-8.59-3.679-12.841
		c-7.132-22.958-16.626-45.738-31.24-65.011c-7.113-9.381-16.262-16.875-27.833-19.974c-18.443-4.938-39.076-0.723-56.564,5.744
		c-26.572,9.826-45.471,30.397-54.864,56.869c-16.694,47.057-2.899,97.552,19.358,140.152c8.101,15.505,17.125,30.669,26.878,45.385
		c-5.725-1.917-11.402-3.972-17.024-6.185c-25.016-10.922-48.537-24.852-69.921-41.841c-26.846-22.873-50.537-49.138-78.062-71.298
		c-29.508-23.757-65.292-40.205-103.392-43.062c-80.1-6.006-167.066,49.443-175.616,133.471
		c-7.221,70.966,36.084,133.204,95.131,168.352c30.597,18.213,65.455,29.96,100.345,36.553c8.325,1.573,16.656,2.897,24.992,4.082
		c33.8,4.804,67.732,6.431,102.055,4.421c50.892-2.98,101.6-15.399,147.797-37.096c6.149,11.108,14.019,20.919,23.374,29.028
		L579.024,868.211l0,0l-21.121,233.613l31.149,3.865l124.917,15.5l68.141,8.455l23.422-238.839l222.777-120.984
		c7.65,1.696,15.703,2.611,24.128,2.611c12.13,0,24.137-1.857,35.638-5.292l227.713,123.665l23.422,238.839l193.058-23.956
		l31.149-3.865v0l-21.121-233.613l0,0l-411.851-122.649c8.226-6.262,15.655-13.463,22.061-21.415
		c47.692,21.459,100.387,32.026,153.066,32.398c21.361,0.151,43.213-0.803,65.053-3.141c76.646-8.203,153.148-33.529,207.804-88.656
		c29.386-29.639,51.448-69.423,54.162-111.654C1635.156,513.167,1622.53,471.897,1591.935,444.809z M1155.393,352.36
		 M894.576,678.097c-3.233,1.215-8.122,2.587,2.808-1.081C896.447,677.373,895.515,677.744,894.576,678.097z M898.945,676.519
		l-0.819,0.249c1.117-0.374,2.328-0.777,3.76-1.251C900.904,675.842,899.927,676.189,898.945,676.519z M930.947,661.775l-0.22,0.129
		c-9.263,4.854-18.703,9.325-28.415,13.216c-1.541,0.617-3.095,1.197-4.646,1.788c-5.15,1.702-10.335,3.303-15.566,4.737
		c-5.43,1.489-10.901,2.826-16.402,4.028c-0.669,0.146-2.352,0.482-4.002,0.81c-1.813,0.307-3.648,0.617-4.417,0.733
		c-12.515,1.884-25.131,3.08-37.773,3.667c-2.286,0.106-4.621,0.102-6.934,0.195l-0.354,0c-6.736-0.031-13.469-0.229-20.196-0.584
		c-12.567-0.663-25.11-1.88-37.576-3.605c-1.563-0.216-3.121-0.46-4.681-0.696c-1.74-0.562-4.377-0.716-5.981-1.028
		c-6.247-1.217-12.463-2.593-18.636-4.146c-11.474-2.888-22.743-6.467-33.788-10.688c-17.763-7.746-34.48-17.437-49.696-29.462
		c-14.273-12.627-26.55-27.207-36.02-43.777c-7.91-16.364-12.719-33.898-14.049-52.028c0.049-12.513,1.815-24.817,5.551-36.747
		c2.981-7.03,6.645-13.68,10.986-19.95c2.117-2.488,4.296-4.92,6.636-7.212c0.849-0.831,1.739-1.613,2.624-2.403l0.781-0.581
		c1.395-1,2.84-1.914,4.276-2.845c0.738-0.34,1.479-0.677,2.222-1.002l0.359-0.094l0.778-0.061c1.671,0.06,3.345,0.112,5.008,0.272
		l1.212,0.141c1.945,0.445,3.913,0.83,5.828,1.352c3.371,0.918,6.676,2.031,9.954,3.221c14.797,6.699,28.384,15.484,41.096,25.575
		c32.534,27.747,60.568,60.231,96.008,84.663c35.003,24.129,75.626,41.427,116.885,51.427c14.426,3.496,29.113,6.181,43.885,8.16
		c-0.097,1.143-0.18,2.291-0.236,3.448c-2.761,1.879-5.491,3.806-8.32,5.582C935.084,659.294,933.023,660.547,930.947,661.775z
		 M1001.319,568.379c-8.098-11.252-15.754-22.834-22.891-34.743c-22.835-38.104-42.287-80.758-39.576-126.217
		c1.158-19.431,7.381-41.612,20.095-56.752l0.576-0.605c0.461,0.314,0.938,0.624,1.361,0.932c4.188,3.047,7.788,6.851,10.989,10.903
		c13.237,16.756,21.431,38.329,27.896,58.457c7.172,22.325,12.426,45.318,16.114,68.467c3.676,23.087,5.587,46.405,5.916,69.74
		C1014.68,561.308,1007.823,564.604,1001.319,568.379z M1096.557,550.523c-0.153-16.247,0.842-32.534,2.852-48.685
		c5.568-44.706,16.015-94.292,41.216-131.117c3.031-4.43,6.292-8.705,9.777-12.789c1.699-1.993,3.457-3.942,5.273-5.83l0.675-0.62
		c1.263-1.157,2.527-2.309,3.838-3.414c0.546-0.46,1.105-0.909,1.676-1.346c0.842,0.332,1.688,0.648,2.513,1.033
		c1.116,0.521,2.218,1.07,3.281,1.692l0.302,0.172l0.643,0.488c4.288,3.142,8.155,6.785,11.426,10.984
		c6.692,8.589,10.005,19.74,11.917,30.324c8.487,46.95-7.213,97.254-28.392,138.756c-6.985,13.688-14.968,26.804-23.603,39.514
		C1128.015,560.174,1113.483,553.54,1096.557,550.523z M1523.977,597.626c-4.458,10.905-10.148,21.146-16.922,30.771
		c-5.748,7.057-11.887,13.773-18.638,19.895c-0.363,0.328-1.199,1.052-2.09,1.819c-1.057,0.839-2.114,1.678-2.559,2.013
		c-4.455,3.356-9.045,6.53-13.758,9.513c-1.579,0.999-3.187,1.951-4.789,2.91c1.169-0.613,2.546-1.329,4.207-2.185
		c-1.162,0.599-2.303,1.246-3.461,1.853l-1.101,0.549c-0.53,0.316-1.05,0.645-1.58,0.96c-2.553,1.517-6.379,3.222,0.576-0.46
		c-4.952,2.531-9.982,4.913-15.096,7.096c-2.672,1.14-5.365,2.23-8.074,3.279c-5.239,1.694-10.486,3.332-15.805,4.771
		c-5.779,1.564-11.605,2.958-17.459,4.212c-1.339,0.286-2.683,0.55-4.029,0.81c-1.074,0.179-2.147,0.358-3.223,0.527
		c-12.672,1.988-25.435,3.424-38.232,4.316c-5.864,0.409-12.095,0.055-17.938,0.792c-3.183-0.012-6.365-0.047-9.546-0.137
		c-13.444-0.379-26.871-1.437-40.197-3.258c-3.132-0.427-6.247-1.017-9.381-1.41c14.898,1.867,1.245,0.123-2.495-0.651
		c-6.675-1.382-13.309-2.969-19.883-4.771c-10.719-2.938-21.242-6.493-31.585-10.542c-16.861-7.37-32.984-16.216-48.105-26.615
		c45.751-9.63,89.823-26.987,130.081-50.842c28.241-16.734,53.125-38.358,76.636-61.125c10.824-10.481,21.5-21.129,32.754-31.153
		c2.81-2.502,5.726-4.884,8.54-7.38c-11.493,10.202-1.592,1.416,1.413-0.843c5.406-4.066,11.017-7.855,16.802-11.36
		c0.973-0.511,1.944-1.027,2.932-1.503c2.676-1.291,5.402-2.449,8.139-3.592c0.837-0.251,1.666-0.523,2.51-0.753
		c0.898-0.245,1.804-0.445,2.707-0.661c0.697-0.085,1.393-0.177,2.093-0.244c0.341-0.032,0.9-0.068,1.537-0.105l0.223,0.01
		c1.419,0.081,2.825,0.24,4.233,0.383c0.964,0.224,1.929,0.437,2.887,0.701c1.742,0.481,3.463,1.022,5.17,1.608
		c6.085,2.898,11.832,6.362,17.255,10.363c8.819,7.945,16.245,17.136,22.161,27.425c5.718,12.518,8.962,25.848,10.051,39.558
		C1530.928,568.985,1528.53,583.547,1523.977,597.626z"/>
	<path style="fill:#F8AA37;" d="M980.471,583.168l0.153,0.021c6.312-5.539,13.263-10.496,20.695-14.81
		c-8.098-11.252-15.754-22.834-22.891-34.743c-22.835-38.104-42.287-80.758-39.576-126.217c1.158-19.431,7.381-41.612,20.095-56.752
		l0.576-0.605c0.461,0.314,0.938,0.624,1.361,0.932c4.188,3.047,7.788,6.851,10.989,10.903
		c13.237,16.756,21.431,38.329,27.896,58.457c7.172,22.325,12.426,45.318,16.114,68.467c3.676,23.087,5.587,46.405,5.916,69.74
		c16.721-6.452,34.82-9.95,52.819-9.95c7.697,0,15.004,0.674,21.94,1.911c-0.153-16.247,0.842-32.534,2.852-48.685
		c5.568-44.706,16.015-94.292,41.216-131.117c3.031-4.43,6.292-8.705,9.777-12.789c1.699-1.993,3.457-3.942,5.273-5.83l0.675-0.62
		c1.263-1.157,2.527-2.309,3.838-3.414c0.546-0.46,1.105-0.909,1.676-1.346c0.842,0.332,1.688,0.648,2.513,1.033
		c1.116,0.521,2.218,1.07,3.281,1.692l0.302,0.172l0.643,0.488c4.288,3.142,8.155,6.785,11.426,10.984
		c6.692,8.589,10.005,19.74,11.917,30.324c8.487,46.95-7.213,97.254-28.392,138.756c-6.985,13.688-14.968,26.804-23.603,39.514
		c5.58,4.446,10.606,9.494,14.991,15.16c1.453-0.169,2.911-0.284,4.362-0.472c4.115-0.532,8.198-1.231,12.293-1.866
		c1.632-0.34,3.266-0.675,4.892-1.038c3.296-0.735,6.567-1.576,9.84-2.408c10.381-14.485,20.107-29.424,28.64-45.146
		c25.406-46.811,43.79-102.037,35.155-155.939c-3.96-24.72-17.745-48.312-41.876-57.887c-32.751-12.996-73.003,0.625-97.738,23.88
		c-22.722,21.364-37.757,48.136-48.235,76.886c-1.191-4.292-2.359-8.59-3.679-12.841c-7.132-22.958-16.626-45.738-31.24-65.011
		c-7.113-9.381-16.262-16.875-27.833-19.974c-18.443-4.938-39.076-0.723-56.564,5.744c-26.572,9.826-45.471,30.397-54.864,56.869
		c-16.694,47.057-2.899,97.552,19.358,140.152c8.101,15.505,17.125,30.669,26.878,45.385c11.094,3.715,22.348,6.934,33.781,9.484
		C972.218,581.58,976.342,582.369,980.471,583.168z M1155.393,352.36"/>
	<path style="fill:#FDCE74;" d="M1542.295,868.211L1542.295,868.211l-411.851-122.649c8.226-6.262,15.655-13.463,22.061-21.415
		c15.245-18.925,24.632-42.12,24.632-67.262c0-28.761-7.829-53.477-22.194-72.04c-4.385-5.667-9.411-10.714-14.991-15.16
		c-11.937-9.51-26.469-16.144-43.395-19.162c-6.937-1.237-14.244-1.911-21.94-1.911c-17.999,0-36.098,3.498-52.819,9.95
		c-7.118,2.747-13.975,6.042-20.479,9.817c-7.431,4.314-14.382,9.271-20.695,14.81c-19.413,17.038-32.694,39.575-34.94,65.793
		c-0.097,1.143-0.18,2.291-0.236,3.448c-0.07,1.478-0.141,2.955-0.141,4.454c0,22.726,5.457,43.861,15.33,61.693
		c6.149,11.108,14.019,20.919,23.374,29.028L579.024,868.211l0,0l-21.121,233.613l31.149,3.865l124.917,15.5l68.141,8.455
		l23.422-238.839l222.777-120.984c7.65,1.696,15.703,2.611,24.128,2.611c12.13,0,24.137-1.857,35.638-5.292l227.713,123.665
		l23.422,238.839l193.058-23.956l31.149-3.865v0L1542.295,868.211z"/>
	<path style="fill:#F4A7BA;" d="M1315.788,890.807L1315.788,890.807l-227.713-123.665c-11.501,3.435-23.508,5.292-35.638,5.292
		c-8.425,0-16.478-0.915-24.128-2.611L805.532,890.807l255.128,25.451L1315.788,890.807z"/>
	<path style="fill:#F4A7BA;" d="M1152.505,724.146c-6.406,7.952-13.835,15.154-22.061,21.415l411.851,122.649l0,0l215.842-21.532
		l0.029,0.281l1.094-0.281l-388.637-93.276c-21.84,2.338-43.692,3.292-65.053,3.141
		C1252.892,756.172,1200.197,745.606,1152.505,724.146z"/>
	<polygon style="fill:#D85061;" points="1563.417,1101.824 1563.417,1101.824 1532.268,1105.689 1538.427,1697.844 
		1312.333,1749.095 1304.052,1134.008 1060.098,1164.279 1060.098,1806.018 1060.098,1806.272 1060.66,1806.145 1061.221,1806.018 
		1704.448,1660.21 1722.293,1082.11 	"/>
	<polygon style="fill:#FBBF5B;" points="1339.21,1129.645 1304.052,1134.008 1312.333,1749.095 1538.427,1697.844 
		1532.268,1105.689 	"/>
	<polygon style="fill:#FBBF5B;" points="589.052,1105.689 582.892,1697.844 808.988,1749.095 817.27,1134.008 713.97,1121.19 	"/>
</g>
</svg>
